<?xml version="1.0" standalone="no"?>
<!DOCTYPE svg PUBLIC "-//W3C//DTD SVG 20010904//EN"
 "http://www.w3.org/TR/2001/REC-SVG-20010904/DTD/svg10.dtd">
<svg version="1.0" xmlns="http://www.w3.org/2000/svg"
 width="260.000000pt" height="260.000000pt" viewBox="0 0 260.000000 260.000000"
 preserveAspectRatio="xMidYMid meet">
<metadata>
Created by potrace 1.14, written by Peter Selinger 2001-2017
</metadata>
<g transform="translate(0.000000,260.000000) scale(0.100000,-0.100000)"
fill="#000000" stroke="none">
<path d="M1317 2446 c-42 -23 -65 -56 -73 -103 -3 -24 -8 -43 -10 -43 -2 0
-27 9 -56 21 -84 33 -151 14 -191 -56 -8 -12 -14 -93 -17 -210 l-5 -189 -24
69 c-31 90 -51 113 -86 97 -29 -14 -31 -30 -8 -94 9 -26 15 -50 12 -53 -3 -2
-30 5 -60 17 -71 29 -227 31 -309 3 -112 -37 -218 -119 -280 -215 -60 -93 -98
-286 -66 -335 19 -28 47 -32 66 -10 7 9 16 56 20 105 10 110 40 180 110 254
87 92 228 146 344 131 63 -8 146 -34 146 -45 0 -5 -17 -12 -37 -15 -103 -18
-135 -47 -95 -87 l20 -21 115 22 c62 11 119 21 125 21 9 0 12 -59 12 -215 l0
-215 -423 0 c-316 0 -426 -3 -435 -12 -17 -17 -17 -1059 0 -1076 17 -17 1259
-17 1276 0 9 9 12 106 12 375 0 200 2 363 4 363 2 0 25 -9 51 -20 42 -18 69
-20 257 -20 l209 0 202 86 c111 48 223 97 248 110 82 41 79 18 79 624 0 517
-1 534 -20 565 -22 36 -73 65 -114 65 -14 0 -48 -9 -76 -20 -28 -11 -52 -20
-54 -20 -2 0 -6 18 -9 40 -7 54 -31 88 -72 106 -46 19 -84 18 -121 -5 -17 -10
-82 -80 -145 -154 -63 -75 -119 -136 -125 -136 -7 -1 -61 56 -122 127 -60 70
-121 138 -135 151 -33 30 -101 38 -140 17z m201 -281 l132 -155 0 -430 c0
-263 -4 -430 -9 -430 -6 0 -69 69 -140 153 l-130 152 -1 433 c0 237 3 432 8
432 4 0 67 -70 140 -155z m532 -279 l0 -433 -127 -151 c-71 -83 -132 -149
-138 -148 -6 2 -11 155 -12 427 l-3 424 101 120 c94 112 169 195 176 195 2 0
3 -195 3 -434z m-837 282 l27 -10 0 -352 c0 -244 4 -363 12 -387 11 -33 58
-92 227 -287 45 -51 81 -98 81 -104 0 -17 -48 -3 -142 41 -48 23 -91 41 -96
41 -5 0 -54 20 -108 44 l-99 43 -7 49 c-8 63 -10 949 -2 957 4 3 23 -1 43 -9
20 -9 48 -20 64 -26z m1107 -466 l0 -499 -215 -93 c-130 -56 -221 -90 -231
-86 -15 6 -15 8 -1 24 117 132 282 334 293 359 11 26 14 108 14 391 l0 359 53
21 c96 38 87 89 87 -476z m-1340 -517 c0 -44 33 -77 113 -115 l82 -39 -497 0
-498 -1 0 85 0 85 400 0 c355 0 400 -2 400 -15z m338 -577 l2 -348 -570 0
-570 0 0 343 c0 189 3 347 7 350 3 4 259 6 567 5 l561 -3 3 -347z"/>
<path d="M274 1136 c-12 -31 0 -51 31 -51 27 0 30 3 30 30 0 25 -4 30 -28 33
-17 2 -29 -2 -33 -12z"/>
<path d="M394 1136 c-12 -31 0 -51 31 -51 27 0 30 3 30 30 0 25 -4 30 -28 33
-17 2 -29 -2 -33 -12z"/>
<path d="M514 1136 c-12 -31 0 -51 31 -51 27 0 30 3 30 30 0 25 -4 30 -28 33
-17 2 -29 -2 -33 -12z"/>
<path d="M277 863 c-14 -13 -6 -53 12 -63 12 -6 106 -10 235 -10 182 0 217 2
230 16 19 18 19 20 6 45 -10 18 -24 19 -244 19 -128 0 -236 -3 -239 -7z"/>
<path d="M860 845 c-13 -34 -13 -316 0 -350 l10 -25 177 2 178 3 0 195 0 195
-178 3 -177 2 -10 -25z m298 -177 l-3 -123 -110 0 -110 0 -3 123 -3 122 116 0
116 0 -3 -122z"/>
<path d="M283 703 c-19 -7 -16 -60 3 -67 9 -3 116 -6 239 -6 212 0 225 1 235
19 13 25 13 27 -6 45 -13 14 -48 16 -237 15 -122 0 -228 -3 -234 -6z"/>
<path d="M274 526 c-3 -8 -4 -23 -2 -33 3 -17 21 -18 239 -21 253 -3 269 0
254 48 -6 19 -13 20 -246 20 -199 0 -241 -2 -245 -14z"/>
</g>
</svg>
